# xmcd
#
# Track frame offsets: 
#        150
#        11425
#        22765
#        34877
#        47152
#        59337
#        72062
#        83902
#        92717
#        105162
#
# Disc length: 1558 seconds
#
# Revision: 0
# Processed by: cddbd v1.5.2PL0 Copyright (c) Steve Scherf et al.
# Submitted via: ExactAudioCopy v0.99pb3
#
DISCID=6d06140a
DTITLE=Stonewall Jackson - The Very Best of Stonewall Jackson - Waterl
DTITLE=oo
DYEAR=2003
DGENRE=Country
TTITLE0=Waterloo
TTITLE1=Life To Go
TTITLE2=A Wound Time Can't Erase
TTITLE3=I Washed My Hands In Muddy Water
TTITLE4=Smoke Along The Track
TTITLE5=BJ The DJ
TTITLE6=Mama's Bible
TTITLE7=Here's To Hank
TTITLE8=Blues Plus Booze Means I Lose
TTITLE9=Help Stamp Out Loneliness
EXTD=
EXTT0=
EXTT1=
EXTT2=
EXTT3=
EXTT4=
EXTT5=
EXTT6=
EXTT7=
EXTT8=
EXTT9=
PLAYORDER=
